<?xml version="1.0" encoding="utf-8"?>
<!-- Generator: Adobe Illustrator 25.4.1, SVG Export Plug-In . SVG Version: 6.00 Build 0)  -->
<svg version="1.1" id="Layer_1" xmlns="http://www.w3.org/2000/svg" xmlns:xlink="http://www.w3.org/1999/xlink" x="0px" y="0px"
	 viewBox="0 0 274.8 117" style="enable-background:new 0 0 274.8 117;" xml:space="preserve">
<style type="text/css">
	.st0{display:none;}
	.st1{display:inline;fill:url(#SVGID_1_);}
	.st2{display:inline;fill:url(#SVGID_00000046309614728094175180000000197381504897810095_);}
	.st3{display:inline;fill:url(#SVGID_00000153696007588814719590000016112052862246322560_);}
	.st4{fill:#2BA4DD;}
	.st5{fill:#8DC640;}
	.st6{fill:#FFFFFF;}
</style>
<g class="st0">
	
		<linearGradient id="SVGID_1_" gradientUnits="userSpaceOnUse" x1="110.0131" y1="-17.22" x2="110.0131" y2="50.06" gradientTransform="matrix(1 0 0 -1 -36.08 65.15)">
		<stop  offset="0" style="stop-color:#8ADBFF"/>
		<stop  offset="0.4721" style="stop-color:#0BA7ED"/>
	</linearGradient>
	<path class="st1" d="M40.4,24.7h55c8.1,0,12.1,3.4,12.1,10.1V69c0,6.7-4,10.1-12.1,10.1H49l0.1-34.2l0,0V69h44.3
		c1,0.1,1.9-0.6,2-1.5c0-0.2,0-0.3,0-0.5V36.7c0.1-1-0.6-1.9-1.5-2c-0.2,0-0.3,0-0.5,0H46.7L40.4,24.7z"/>
	
		<linearGradient id="SVGID_00000110471286338963392500000009777003778227055237_" gradientUnits="userSpaceOnUse" x1="190.845" y1="-17.22" x2="190.845" y2="50.06" gradientTransform="matrix(1 0 0 -1 -36.08 65.15)">
		<stop  offset="0" style="stop-color:#8ADBFF"/>
		<stop  offset="0.4721" style="stop-color:#0BA7ED"/>
	</linearGradient>
	<path style="display:inline;fill:url(#SVGID_00000110471286338963392500000009777003778227055237_);" d="M119.5,24.7h58.4
		c8.1,0,12.1,3.4,12.1,10.1v10.1c0,6.7-4,10.1-12.1,10.1h-46.3V79h-12.1V44.8h56.4c1,0.1,1.9-0.6,2-1.5c0-0.2,0-0.3,0-0.5v-6
		c0.1-1-0.6-1.9-1.5-2c-0.2,0-0.3,0-0.5,0h-56.4V24.7z"/>
	
		<linearGradient id="SVGID_00000040532665689432025050000004547784639520029844_" gradientUnits="userSpaceOnUse" x1="273.385" y1="-17.22" x2="273.385" y2="50.06" gradientTransform="matrix(1 0 0 -1 -36.08 65.15)">
		<stop  offset="0" style="stop-color:#8ADBFF"/>
		<stop  offset="0.4721" style="stop-color:#0BA7ED"/>
	</linearGradient>
	<path style="display:inline;fill:url(#SVGID_00000040532665689432025050000004547784639520029844_);" d="M272.5,24.7v10.1h-56.4
		c-1-0.1-1.9,0.6-2,1.5c0,0.2,0,0.3,0,0.5v8.1h58.4v10.1h-58.4V79h-12.1V34.7c0-6.7,4-10.1,12.1-10.1L272.5,24.7z"/>
</g>
<g>
	<path id="Test_D" class="st4" d="M40.4,24.7h57.3c8.1,0,12.1,3.4,12.1,10.1V69c0,6.7-4,10.1-12.1,10.1H42.9
		c1.6-4.3,3.4-10.1,4.2-17.1c0.8-6.8,0.5-12.7-0.1-17.1c1.4,0,2.9,0,4.3,0V69h44.3c1,0.1,1.9-0.6,2-1.5c0-0.2,0-0.3,0-0.5V36.7
		c0.1-1-0.6-1.9-1.5-2c-0.2,0-0.3,0-0.5,0H44.8c-0.5-1.6-1.2-3.3-2-5.1C42,27.8,41.2,26.2,40.4,24.7z"/>
	<path class="st4" d="M121.8,24.7h58.4c8.1,0,12.1,3.4,12.1,10.1v10.1c0,6.7-4,10.1-12.1,10.1h-46.3V79h-12.1V44.8h56.4
		c1,0.1,1.9-0.6,2-1.5c0-0.2,0-0.3,0-0.5v-6c0.1-1-0.6-1.9-1.5-2c-0.2,0-0.3,0-0.5,0h-56.4V24.7z"/>
	<path class="st4" d="M274.8,24.7v10.1h-56.4c-1-0.1-1.9,0.6-2,1.5c0,0.2,0,0.3,0,0.5v8.1h58.4v10.1h-58.4V79h-12.1V34.7
		c0-6.7,4-10.1,12.1-10.1L274.8,24.7z"/>
</g>
<path class="st5" d="M10.3,0.5c0,0,31.5,13.7,33.3,49.4S21.6,93.7,40,117c0,0-35.5-18.6-18.8-81.9c0,0-20.2,29.1,0,65.1
	c0,0-33.3-11.7-16.5-59.7C16.9,5,9.6,0,9.6,0"/>
<g>
	<path class="st5" d="M48.6,87.5L54.1,98h-3l-1-2.1h-6.8l-1,2.1h-3l5.5-10.5c0.3-0.6,0.9-0.9,1.9-0.9S48.3,86.9,48.6,87.5z
		 M46.7,89.2l-2.3,4.6H49L46.7,89.2z"/>
	<path class="st5" d="M62.9,86.6v8.8c0,0.3,0.1,0.4,0.4,0.4h11.8V98H62.9c-1.7,0-2.5-0.7-2.5-2.1v-9.2H62.9z"/>
	<path class="st5" d="M81.1,88.7v-2.1h14.7v2.1h-6.1V98h-2.5v-9.2H81.1z"/>
	<path class="st5" d="M116.9,86.6v2.1h-11.8c-0.2,0-0.4,0.1-0.4,0.3c0,0,0,0.1,0,0.1v1.7h12.2v2.1h-12.2v2.5c0,0.3,0.1,0.4,0.4,0.4
		h11.8V98h-12.2c-1.7,0-2.5-0.7-2.5-2.1v-7.1c0-1.4,0.8-2.1,2.5-2.1H116.9z"/>
	<path class="st5" d="M124.2,86.6h12.2c1.7,0,2.5,0.7,2.5,2.1v2.1c0,0.7-0.2,1.1-0.6,1.3c0.4,0.3,0.7,0.8,0.6,1.3l0.6,4.6H137
		l-0.6-4.6c0-0.2-0.1-0.4-0.3-0.4c0,0-0.1,0-0.1,0h-9.2v5h-2.5v-7.1h11.8c0.2,0,0.4-0.1,0.4-0.3c0,0,0-0.1,0-0.1v-1.2
		c0-0.2-0.1-0.4-0.3-0.4c0,0-0.1,0-0.1,0h-11.8V86.6z"/>
	<path class="st5" d="M160.8,86.6v9.2c0,1.4-0.9,2.1-2.5,2.1c-0.8,0-1.5-0.3-2.1-0.8l-7.6-8.4V98h-2.5v-9.2c0-1.4,0.8-2.1,2.5-2.1
		c0.8,0,1.5,0.3,2.1,0.9l7.6,8.4v-9.2L160.8,86.6z"/>
	<path class="st5" d="M176.5,87.5L182,98h-3l-1.1-2.1h-6.7l-1,2.1h-3l5.5-10.5c0.3-0.6,0.9-0.9,1.9-0.9S176.2,86.9,176.5,87.5z
		 M174.6,89.2l-2.3,4.6h4.7L174.6,89.2z"/>
	<path class="st5" d="M187.5,88.7v-2.1h14.7v2.1h-6.1V98h-2.5v-9.2H187.5z"/>
	<path class="st5" d="M210.7,86.6V98h-2.5V86.6H210.7z"/>
	<path class="st5" d="M225.9,97.2c-0.3,0.6-0.9,0.8-1.9,0.8s-1.6-0.3-1.9-0.8l-5.5-10.5h2.9l4.4,8.8l4.4-8.8h2.9L225.9,97.2z"/>
	<path class="st5" d="M252.5,86.6v2.1h-11.8c-0.2,0-0.4,0.1-0.4,0.3c0,0,0,0.1,0,0.1v1.7h12.2v2.1h-12.2v2.5c0,0.2,0.1,0.4,0.3,0.4
		c0,0,0.1,0,0.1,0h11.8V98h-12.2c-1.7,0-2.5-0.7-2.5-2.1v-7.1c0-1.4,0.8-2.1,2.5-2.1H252.5z"/>
	<path class="st5" d="M274.4,86.6v2.1h-11.8c-0.3,0.1-0.4,0.4-0.4,0.6c0,0.3,0.2,0.5,0.4,0.6l8.8,2.5c2,0.6,2.9,1.3,2.9,2.1v1.2
		c0,1.4-0.8,2.1-2.5,2.1h-12.2v-2.1h11.8c0.3-0.1,0.5-0.5,0.4-0.9c-0.1-0.2-0.2-0.3-0.4-0.4l-8.8-2.5c-2-0.6-2.9-1.3-2.9-2.1v-1.3
		c0-1.4,0.8-2.1,2.5-2.1L274.4,86.6z"/>
	<rect x="39.2" y="101.9" class="st6" width="235.7" height="0.7"/>
	<path class="st6" d="M44.8,106.9h-4v1.3h3.8c0.4,0,0.9,0.1,1.2,0.3c0.2,0.3,0.4,0.7,0.3,1.1v0.8c0,0.4-0.1,0.8-0.3,1.1
		c-0.4,0.2-0.8,0.4-1.2,0.3h-3.7c-0.4,0-0.9-0.1-1.2-0.3c-0.3-0.3-0.4-0.7-0.3-1.1v-0.2l1.2-0.2v0.7h4.3v-1.4h-3.8
		c-0.4,0.1-0.8-0.1-1.2-0.3c-0.2-0.3-0.4-0.7-0.3-1.1v-0.7c0-0.4,0.1-0.8,0.3-1.1c0.3-0.2,0.8-0.4,1.2-0.3h3.4
		c0.4,0,0.8,0.1,1.2,0.3c0.2,0.3,0.4,0.6,0.3,1v0.1l-1.2,0.3V106.9z"/>
	<path class="st6" d="M50.4,105.8v4.9h4v-4.9h1.5v4.6c0,0.4-0.1,0.8-0.3,1.1c-0.4,0.2-0.8,0.3-1.2,0.3h-3.9c-0.4,0-0.8-0.1-1.2-0.3
		c-0.2-0.3-0.4-0.7-0.3-1.1v-4.6H50.4z"/>
	<path class="st6" d="M59,111.9v-6.1h5.2c0.4,0,0.7,0.1,1,0.3c0.2,0.2,0.4,0.6,0.3,0.9v1.4c0,0.3-0.1,0.7-0.3,0.9
		c-0.3,0.2-0.6,0.3-1,0.3h-3.8v2.4L59,111.9z M63.6,106.9h-3.2v1.6h3.2c0.2,0,0.3,0,0.5-0.1c0.1-0.1,0.1-0.2,0.1-0.4v-0.6
		c0-0.1,0-0.3-0.1-0.4C63.9,106.9,63.7,106.8,63.6,106.9L63.6,106.9z"/>
	<path class="st6" d="M67.7,111.9v-6.1h6.2v1h-4.8v1.4h2.8v1h-2.8v1.5H74v1.1L67.7,111.9z"/>
	<path class="st6" d="M76.6,111.9v-6.1h5.2c0.4,0,0.7,0.1,1,0.3c0.2,0.2,0.3,0.6,0.3,0.9v1.4c0,0.3-0.1,0.7-0.3,0.9
		c-0.3,0.2-0.6,0.3-1,0.3H81l2.8,2.3h-2l-2.4-2.3H78v2.3L76.6,111.9z M81.2,106.9H78v1.7h3.2c0.2,0,0.4,0,0.5-0.1
		c0.1-0.1,0.1-0.2,0.1-0.4v-0.7c0-0.1,0-0.3-0.1-0.4C81.5,106.9,81.4,106.8,81.2,106.9L81.2,106.9z"/>
	<path class="st6" d="M86.1,111.9v-6.1h1.4v6.1H86.1z"/>
	<path class="st6" d="M90.4,107.2c0-0.4,0.1-0.8,0.3-1.1c0.3-0.2,0.8-0.4,1.2-0.3h4.5c0.4,0,0.8,0.1,1.2,0.3
		c0.2,0.3,0.4,0.7,0.3,1.1v3.2c0,0.4-0.1,0.8-0.3,1.1c-0.3,0.2-0.8,0.3-1.2,0.3h-4.5c-0.4,0-0.8-0.1-1.2-0.3
		c-0.2-0.3-0.4-0.7-0.3-1.1L90.4,107.2z M91.9,110.7h4.7v-3.8h-4.7V110.7z"/>
	<path class="st6" d="M100.9,111.9v-6.1h5.2c0.4,0,0.7,0.1,1,0.3c0.2,0.2,0.4,0.6,0.3,0.9v1.4c0,0.3-0.1,0.7-0.3,0.9
		c-0.3,0.2-0.6,0.3-1,0.3h-0.8l2.8,2.3h-2l-2.4-2.3h-1.3v2.3L100.9,111.9z M105.5,106.9h-3.2v1.7h3.2c0.2,0,0.3,0,0.5-0.1
		c0.1-0.1,0.1-0.2,0.1-0.4v-0.7c0-0.1,0-0.3-0.1-0.4C105.8,106.9,105.7,106.8,105.5,106.9L105.5,106.9z"/>
	<path class="st6" d="M114.9,111.9v-6.1h6.2v1h-4.8v1.4h2.8v1h-2.8v1.5h4.9v1.1L114.9,111.9z"/>
	<path class="st6" d="M123.8,111.9v-6.1h1.1l2.9,3.7l2.8-3.7h1.1v6.1h-1.3v-3.7c0-0.1,0-0.2,0-0.3s0-0.2,0-0.4l-0.2,0.4
		c0,0.1-0.1,0.2-0.2,0.3l-2.3,3h-0.3l-2.2-3c-0.1-0.1-0.1-0.2-0.2-0.3c-0.1-0.1-0.1-0.2-0.1-0.3c0,0.1,0,0.2,0,0.3s0,0.2,0,0.3v3.8
		L123.8,111.9z"/>
	<path class="st6" d="M134.7,111.9v-6.1h1.4v6.1H134.7z"/>
	<path class="st6" d="M144.5,106.9h-4v1.3h3.8c0.4,0,0.9,0.1,1.2,0.3c0.2,0.3,0.4,0.7,0.3,1.1v0.8c0,0.4-0.1,0.8-0.3,1.1
		c-0.3,0.2-0.8,0.4-1.2,0.3h-3.7c-0.4,0-0.9-0.1-1.2-0.3c-0.2-0.3-0.4-0.7-0.3-1.1v-0.2l1.2-0.2v0.7h4.3v-1.4h-3.8
		c-0.4,0.1-0.8-0.1-1.2-0.3c-0.3-0.3-0.4-0.7-0.3-1.1v-0.7c0-0.4,0.1-0.8,0.3-1.1c0.3-0.2,0.8-0.4,1.2-0.3h3.4
		c0.4,0,0.8,0.1,1.2,0.3c0.2,0.3,0.4,0.6,0.3,1v0.1l-1.2,0.3V106.9z"/>
	<path class="st6" d="M153.8,106.9h-4v1.3h3.8c0.4,0,0.9,0.1,1.2,0.3c0.2,0.3,0.4,0.7,0.3,1.1v0.8c0,0.4-0.1,0.8-0.3,1.1
		c-0.4,0.2-0.8,0.4-1.2,0.3h-3.8c-0.4,0-0.9-0.1-1.2-0.3c-0.2-0.3-0.4-0.7-0.3-1.1v-0.2l1.2-0.2v0.7h4.3v-1.4H150
		c-0.4,0.1-0.9-0.1-1.2-0.3c-0.2-0.3-0.4-0.7-0.3-1.1v-0.7c0-0.4,0.1-0.8,0.4-1.1c0.3-0.2,0.8-0.4,1.2-0.3h3.4
		c0.4,0,0.8,0.1,1.2,0.3c0.2,0.3,0.4,0.6,0.3,1v0.1l-1.2,0.3L153.8,106.9z"/>
	<path class="st6" d="M158,111.9v-6.1h1.4v6.1H158z"/>
	<path class="st6" d="M162.4,107.2c0-0.4,0.1-0.8,0.3-1.1c0.3-0.2,0.8-0.4,1.2-0.3h4.5c0.4,0,0.8,0.1,1.2,0.3
		c0.2,0.3,0.4,0.7,0.3,1.1v3.2c0,0.4-0.1,0.8-0.3,1.1c-0.3,0.2-0.8,0.3-1.2,0.3h-4.5c-0.4,0-0.8-0.1-1.2-0.3
		c-0.2-0.3-0.4-0.7-0.3-1.1L162.4,107.2z M163.8,110.7h4.6v-3.8h-4.6V110.7z"/>
	<path class="st6" d="M172.9,111.9v-6.1h1l4.3,3.6l0.4,0.3l0.3,0.3c0-0.4,0-0.6,0-0.7s0-0.2,0-0.3v-3.2h1.3v6.1h-1l-4.6-3.7
		l-0.3-0.3l-0.2-0.2c0,0.2,0,0.4,0,0.5s0,0.3,0,0.4v3.3L172.9,111.9z"/>
	<path class="st6" d="M188.4,106.9h-4v1.3h3.8c0.4,0,0.9,0.1,1.2,0.3c0.2,0.3,0.4,0.7,0.3,1.1v0.8c0,0.4-0.1,0.8-0.3,1.1
		c-0.3,0.2-0.8,0.4-1.2,0.3h-3.8c-0.4,0-0.9-0.1-1.2-0.3c-0.2-0.3-0.4-0.7-0.3-1.1v-0.2l1.2-0.2v0.7h4.3v-1.4h-3.8
		c-0.4,0.1-0.8-0.1-1.2-0.3c-0.2-0.3-0.4-0.7-0.3-1.1v-0.7c0-0.4,0.1-0.8,0.3-1.1c0.3-0.2,0.8-0.4,1.2-0.3h3.4
		c0.4,0,0.8,0.1,1.2,0.3c0.2,0.3,0.4,0.6,0.3,1v0.1l-1.2,0.3L188.4,106.9z"/>
	<path class="st6" d="M202.4,106.9h-4v1.3h3.8c0.4,0,0.9,0.1,1.2,0.3c0.2,0.3,0.4,0.7,0.3,1.1v0.8c0,0.4-0.1,0.8-0.3,1.1
		c-0.3,0.2-0.8,0.4-1.2,0.3h-3.8c-0.4,0-0.9-0.1-1.2-0.3c-0.2-0.3-0.4-0.7-0.3-1.1v-0.2l1.2-0.2v0.7h4.3v-1.4h-3.8
		c-0.4,0.1-0.8-0.1-1.2-0.3c-0.2-0.3-0.4-0.7-0.3-1.1v-0.7c0-0.4,0.1-0.8,0.3-1.1c0.3-0.2,0.8-0.4,1.2-0.3h3.4
		c0.4,0,0.8,0.1,1.2,0.3c0.2,0.3,0.4,0.6,0.3,1v0.1l-1.2,0.3L202.4,106.9z"/>
	<path class="st6" d="M206.6,107.2c0-0.4,0.1-0.8,0.3-1.1c0.3-0.2,0.8-0.4,1.2-0.3h4.5c0.4,0,0.9,0.1,1.2,0.3
		c0.2,0.3,0.4,0.7,0.3,1.1v3.2c0,0.4-0.1,0.8-0.3,1.1c-0.4,0.2-0.8,0.3-1.2,0.3h-4.5c-0.4,0-0.8-0.1-1.2-0.3
		c-0.2-0.3-0.4-0.7-0.3-1.1L206.6,107.2z M208,110.7h4.7v-3.8H208V110.7z"/>
	<path class="st6" d="M217,111.9v-6.1h1.4v4.9h4.6v1.1L217,111.9z"/>
	<path class="st6" d="M226.3,105.8v4.9h4v-4.9h1.4v4.6c0,0.4-0.1,0.8-0.3,1.1c-0.4,0.2-0.8,0.3-1.2,0.3h-3.8c-0.4,0-0.8-0.1-1.2-0.3
		c-0.2-0.3-0.4-0.7-0.3-1.1v-4.6H226.3z"/>
	<path class="st6" d="M237.7,106.9v5h-1.4v-5h-2.8v-1.1h7v1.1H237.7z"/>
	<path class="st6" d="M242.2,111.9v-6.1h1.4v6.1H242.2z"/>
	<path class="st6" d="M246.6,107.2c0-0.4,0.1-0.8,0.4-1.1c0.3-0.2,0.8-0.4,1.2-0.3h4.5c0.4,0,0.8,0.1,1.2,0.3
		c0.2,0.3,0.4,0.7,0.3,1.1v3.2c0,0.4-0.1,0.8-0.3,1.1c-0.3,0.2-0.8,0.3-1.2,0.3h-4.5c-0.4,0-0.8-0.1-1.2-0.3
		c-0.2-0.3-0.4-0.7-0.3-1.1L246.6,107.2z M248,110.7h4.7v-3.8H248V110.7z"/>
	<path class="st6" d="M257,111.9v-6.1h1l4.3,3.6l0.4,0.3l0.3,0.3c0-0.4,0-0.6,0-0.7s0-0.2,0-0.3v-3.2h1.3v6.1h-1l-4.5-3.7l-0.3-0.3
		c-0.1-0.1-0.2-0.2-0.2-0.2c0,0.2,0,0.4,0,0.5s0,0.3,0,0.4v3.3L257,111.9z"/>
	<path class="st6" d="M272.5,106.9h-4v1.3h3.8c0.4,0,0.9,0.1,1.2,0.3c0.2,0.3,0.4,0.7,0.3,1.1v0.8c0,0.4-0.1,0.8-0.3,1.1
		c-0.4,0.2-0.8,0.4-1.2,0.3h-3.8c-0.4,0-0.9-0.1-1.2-0.3c-0.2-0.3-0.4-0.7-0.3-1.1v-0.2l1.2-0.2v0.7h4.3v-1.4h-3.8
		c-0.4,0.1-0.8-0.1-1.2-0.3c-0.2-0.3-0.4-0.7-0.3-1.1v-0.7c0-0.4,0.1-0.8,0.3-1.1c0.3-0.2,0.8-0.4,1.2-0.3h3.5
		c0.4,0,0.8,0.1,1.2,0.3c0.2,0.3,0.4,0.6,0.3,1v0.1l-1.2,0.3L272.5,106.9z"/>
</g>
</svg>
